<svg xmlns="http://www.w3.org/2000/svg" width="1120.596" height="777.916" viewBox="0 0 1120.596 777.916"><circle cx="64" cy="64" r="64" transform="translate(148.592 39)" fill="#e0c620"/><path d="M563.68,404.164c0,151.011-89.774,203.739-200.516,203.739S162.649,555.175,162.649,404.164,363.165,61.042,363.165,61.042,563.68,253.152,563.68,404.164Z" transform="translate(-39.704 -61.042)" fill="#f2f2f2"/><path d="M316.156,523.761l2.054-126.383,85.464-156.354L318.532,377.552l.923-56.827,58.9-113.12L319.7,305.687h0l1.66-102.206,63.074-90.058-62.812,73.986L322.658,0l-6.52,248.1.536-10.235L252.547,139.7l63.1,117.8-5.975,114.146-.178-3.029-73.928-103.3,73.7,114-.747,14.275-.134.215.061,1.172-15.159,289.6h20.254l2.43-149.584L389.5,421.285Z" fill="#3f3d56"/><path d="M1160.3,466.014c0,123.61-73.484,166.77-164.132,166.77s-164.132-43.16-164.132-166.77S996.165,185.152,996.165,185.152,1160.3,342.4,1160.3,466.014Z" transform="translate(-39.704 -61.042)" fill="#f2f2f2"/><path d="M950.482,552.833l1.68-103.45L1022.12,321.4,952.426,433.154l.756-46.515,48.218-92.6-48.018,80.285h0l1.359-83.66,51.629-73.717-51.416,60.562.85-153.4-5.337,203.078.439-8.377-52.492-80.347,51.65,96.429-4.891,93.434-.146-2.48-60.513-84.553,60.33,93.314-.612,11.685-.109.176.05.959-12.409,237.05h16.579l1.989-122.441,60.178-93.085Z" fill="#3f3d56"/><ellipse cx="554.592" cy="28.034" rx="554.592" ry="28.034" transform="translate(0 652.445)" fill="#3f3d56"/><ellipse cx="94.989" cy="4.802" rx="94.989" ry="4.802" transform="translate(797.456 721.995)" fill="#3f3d56"/><ellipse cx="94.989" cy="4.802" rx="94.989" ry="4.802" transform="translate(453.731 768.312)" fill="#3f3d56"/><ellipse cx="217.014" cy="10.97" rx="217.014" ry="10.97" transform="translate(70.93 723.309)" fill="#3f3d56"/><circle cx="79" cy="79" r="79" transform="translate(18.084 487.27)" fill="#2f2e41"/><rect width="24" height="43" transform="translate(60.357 627.84) rotate(0.675)" fill="#2f2e41"/><rect width="24" height="43" transform="translate(108.354 628.406) rotate(0.675)" fill="#2f2e41"/><ellipse cx="7.5" cy="20" rx="7.5" ry="20" transform="translate(59.754 678.836) rotate(-89.325)" fill="#2f2e41"/><ellipse cx="7.5" cy="20" rx="7.5" ry="20" transform="translate(107.763 678.402) rotate(-89.325)" fill="#2f2e41"/><circle cx="27" cy="27" r="27" transform="translate(72.319 519.295)" fill="#fff"/><circle cx="9" cy="9" r="9" transform="translate(90.319 537.295)" fill="#3f3d56"/><path d="M61.026,552.946c-6.042-28.641,14.688-57.265,46.3-63.934s62.138,11.143,68.18,39.784-14.978,38.93-46.591,45.6S67.068,581.587,61.026,552.946Z" transform="translate(-39.704 -61.042)" fill="#4173c0"/><path d="M257.3,671.384c0,55.076-32.74,74.306-73.13,74.306q-1.4,0-2.8-.031c-1.871-.04-3.725-.129-5.556-.254-36.451-2.58-64.771-22.8-64.771-74.021,0-53.008,67.739-119.9,72.827-124.846l.009-.009c.2-.192.294-.285.294-.285S257.3,616.308,257.3,671.384Z" transform="translate(-39.704 -61.042)" fill="#4173c0"/><path d="M181.5,737.265l26.747-37.374-26.814,41.477-.071,4.291c-1.871-.04-3.725-.129-5.556-.254l2.883-55.1-.022-.428.049-.08.272-5.2-26.881-41.58,26.965,37.677.062,1.1,2.179-41.633L158.3,597.194,181.6,632.852l2.268-86.314.009-.294v.285l-.379,68.064L206.4,587.61l-23,32.847-.606,37.276,21.391-35.774L182.7,663.217l-.339,20.723,31.056-49.792L182.25,691.172Z" transform="translate(-39.704 -61.042)" fill="#3f3d56"/><circle cx="79" cy="79" r="79" transform="translate(633.485 486.415)" fill="#2f2e41"/><rect width="24" height="43" transform="matrix(0.956, -0.294, 0.294, 0.956, 696.285, 635.26)" fill="#2f2e41"/><rect width="24" height="43" transform="matrix(0.956, -0.294, 0.294, 0.956, 742.168, 621.16)" fill="#2f2e41"/><ellipse cx="20" cy="7.5" rx="20" ry="7.5" transform="matrix(0.956, -0.294, 0.294, 0.956, 706.861, 669.672)" fill="#2f2e41"/><ellipse cx="20" cy="7.5" rx="20" ry="7.5" transform="matrix(0.956, -0.294, 0.294, 0.956, 752.449, 654.615)" fill="#2f2e41"/><circle cx="27" cy="27" r="27" transform="translate(681.522 518.71)" fill="#fff"/><circle cx="9" cy="9" r="9" transform="translate(699.522 536.71)" fill="#3f3d56"/><path d="M657.355,578.743c-14.49-25.433-3.478-59.016,24.594-75.009s62.576-8.341,77.065,17.093-2.391,41.643-30.463,57.637S671.845,604.176,657.355,578.743Z" transform="translate(-39.704 -61.042)" fill="#4173c0"/><path d="M611.3,661.3c0,50.557-30.054,68.21-67.13,68.21q-1.288,0-2.573-.029c-1.718-.037-3.419-.119-5.1-.233-33.461-2.368-59.457-20.929-59.457-67.948,0-48.659,62.181-110.059,66.852-114.6l.008-.008c.18-.176.27-.262.27-.262S611.3,610.742,611.3,661.3Z" transform="translate(-39.704 -61.042)" fill="#4173c0"/><path d="M541.72,721.774l24.552-34.307-24.614,38.074-.065,3.939c-1.718-.037-3.419-.119-5.1-.233l2.646-50.582-.02-.393.045-.074.25-4.777-24.675-38.168,24.753,34.586.057,1.014,2-38.217L520.423,593.2l21.383,32.733,2.082-79.232.008-.27v.262l-.348,62.48L564.579,584.4l-21.117,30.152-.556,34.217,19.636-32.839L542.825,653.8l-.311,19.023,28.508-45.706-28.614,52.344Z" transform="translate(-39.704 -61.042)" fill="#3f3d56"/><path d="M875.3,682.384c0,55.076-32.74,74.306-73.13,74.306q-1.4,0-2.8-.031c-1.871-.04-3.725-.129-5.556-.254-36.451-2.58-64.771-22.8-64.771-74.021,0-53.008,67.739-119.9,72.827-124.846l.009-.009c.2-.192.294-.285.294-.285S875.3,627.308,875.3,682.384Z" transform="translate(-39.704 -61.042)" fill="#4173c0"/><path d="M799.5,748.265l26.747-37.374-26.814,41.477-.071,4.291c-1.871-.04-3.725-.129-5.556-.254l2.883-55.1-.022-.428.049-.08.272-5.2-26.881-41.58,26.965,37.677.062,1.1,2.179-41.633L776.3,608.194,799.6,643.852l2.268-86.314.009-.294v.285l-.379,68.064L824.4,598.61l-23,32.847-.606,37.276,21.391-35.775L800.7,674.217l-.339,20.723,31.056-49.792L800.25,702.172Z" transform="translate(-39.704 -61.042)" fill="#3f3d56"/><ellipse cx="12.4" cy="39.5" rx="12.4" ry="39.5" transform="translate(640.812 590.056) rotate(-64.626)" fill="#2f2e41"/><ellipse cx="12.4" cy="39.5" rx="12.4" ry="39.5" transform="translate(31.538 587.592) rotate(-68.159)" fill="#2f2e41"/></svg>