<svg xmlns="http://www.w3.org/2000/svg" width="31.577" height="27" viewBox="0 0 31.577 27"><g transform="translate(0)"><path d="M24.9,20.278a2.236,2.236,0,1,1-2.236-2.236A2.236,2.236,0,0,1,24.9,20.278Z" transform="translate(-2.208 -4.5)" fill="#c04141"/><path d="M15.616,20.278a2.236,2.236,0,1,1-2.236-2.236,2.236,2.236,0,0,1,2.236,2.236Z" transform="translate(-2.208 -4.5)" fill="#c04141"/><g transform="translate(0)"><path d="M33.785,17.648a3.508,3.508,0,0,0-3.48-3.53,3.438,3.438,0,0,0-2.362.935,17.118,17.118,0,0,0-9.049-2.862l1.638-5.463,4.894.977a3.158,3.158,0,1,0,.232-1.237l-5.991-1.2-2.067,6.9-.5.014a17.18,17.18,0,0,0-9.049,2.862,3.425,3.425,0,0,0-2.363-.935A3.54,3.54,0,0,0,4.113,20.8a6.426,6.426,0,0,0-.084,1.041C4.043,27.169,10.294,31.5,18,31.5s13.957-4.331,13.957-9.668a7.327,7.327,0,0,0-.077-1.041A3.529,3.529,0,0,0,33.785,17.648ZM28.554,5.759A1.913,1.913,0,1,1,26.67,7.671,1.9,1.9,0,0,1,28.554,5.759ZM3.459,17.648A2.252,2.252,0,0,1,5.7,15.384a2.208,2.208,0,0,1,1.35.464,8.969,8.969,0,0,0-2.6,3.684A2.3,2.3,0,0,1,3.459,17.648Zm23.709,9.977A16.246,16.246,0,0,1,18,30.234a16.246,16.246,0,0,1-9.169-2.609c-2.285-1.582-3.544-3.642-3.544-5.794a5.572,5.572,0,0,1,.345-1.927,7.567,7.567,0,0,1,2.159-3.052A10.765,10.765,0,0,1,8.8,16.059c.007-.007.021-.014.028-.021A16.246,16.246,0,0,1,18,13.43a16.246,16.246,0,0,1,9.169,2.609c.007.007.021.014.028.021a10.765,10.765,0,0,1,1.013.795,7.567,7.567,0,0,1,2.159,3.052,5.951,5.951,0,0,1,.3,1.245,5.465,5.465,0,0,1,.042.682C30.712,23.984,29.454,26.044,27.169,27.626Zm4.387-8.1a8.969,8.969,0,0,0-2.6-3.684,2.208,2.208,0,0,1,1.35-.464,2.257,2.257,0,0,1,2.236,2.264A2.285,2.285,0,0,1,31.556,19.526Z" transform="translate(-2.208 -4.5)" fill="#c04141"/><path d="M22.535,25.165A6.808,6.808,0,0,1,18,26.88a6.708,6.708,0,0,1-4.542-1.716l-.886.872a8.09,8.09,0,0,0,10.849,0Z" transform="translate(-2.208 -4.5)" fill="#c04141"/></g></g></svg>