<svg xmlns="http://www.w3.org/2000/svg" width="32.12" height="31.23" viewBox="0 0 32.12 31.23"><path d="M33.856,14.015l-9.082-.8L21.227,4.722a1.865,1.865,0,0,0-3.453,0l-3.547,8.511-9.064.782a1.911,1.911,0,0,0-1.07,3.339l6.887,6.068L8.917,32.43a1.879,1.879,0,0,0,2.8,2.061L19.5,29.72l7.788,4.79a1.879,1.879,0,0,0,2.8-2.061L28.02,23.423l6.887-6.068a1.907,1.907,0,0,0-1.051-3.339ZM19.5,26.152l-7.056,4.332,1.877-8.167-6.23-5.5L16.31,16.1,19.5,8.4l3.209,7.709,8.219.725-6.23,5.5L26.575,30.5Z" transform="translate(-3.443 -3.563)" fill="#e0c620"/></svg>