<svg xmlns="http://www.w3.org/2000/svg" width="34" height="34" viewBox="0 0 34 34"><path d="M0,0H34V34H0Z" fill="none"/><path d="M29.118,12.387l-7.668-.677L18.457,4.541a1.575,1.575,0,0,0-2.915,0l-2.994,7.185L4.9,12.387a1.614,1.614,0,0,0-.9,2.819l5.814,5.123-1.743,7.6a1.587,1.587,0,0,0,2.36,1.74L17,25.646l6.575,4.044a1.587,1.587,0,0,0,2.36-1.74l-1.743-7.62,5.814-5.123a1.61,1.61,0,0,0-.887-2.819ZM17,22.633,11.042,26.29l1.584-6.9-5.26-4.64,6.939-.612L17,7.65l2.709,6.509,6.939.612-5.26,4.64,1.584,6.9Z" transform="translate(0 0)" fill="#e0c620"/></svg>